<?xml version="1.0" encoding="utf-8"?>
<!-- Generator: Adobe Illustrator 24.0.1, SVG Export Plug-In . SVG Version: 6.00 Build 0)  -->
<svg version="1.1" id="Layer_1" xmlns="http://www.w3.org/2000/svg" xmlns:xlink="http://www.w3.org/1999/xlink" firstValue="0px" y="0px"
	 viewBox="0 0 168 84" style="enable-background:new 0 0 168 84;" xml:space="preserve">
<style type="text/css">
	.st0{fill:url(#SVGID_1_);}
	.st1{fill:url(#SVGID_2_);}
	.st2{fill:#FFFFFF;}
	.st3{fill:#CED6FF;}
	.st4{fill:url(#SVGID_3_);}
	.st5{fill:url(#SVGID_4_);}
	.st6{fill:url(#SVGID_5_);}
	.st7{fill:#FF5200;}
	.st8{fill:url(#SVGID_6_);}
	.st9{fill:url(#SVGID_7_);}
	.st10{fill:url(#SVGID_8_);}
	.st11{fill:#FFFFAB;}
	.st12{fill:url(#SVGID_9_);}
	.st13{fill:url(#SVGID_10_);}
	.st14{fill:url(#SVGID_11_);}
	.st15{fill:url(#SVGID_12_);}
	.st16{fill:url(#SVGID_13_);}
	.st17{fill:url(#SVGID_14_);}
	.st18{fill:url(#SVGID_15_);}
	.st19{fill:url(#SVGID_16_);}
	.st20{fill:url(#SVGID_17_);}
	.st21{fill:url(#SVGID_18_);}
	.st22{fill:url(#SVGID_19_);}
	.st23{fill:url(#SVGID_20_);}
</style>
<g>
	<linearGradient id="SVGID_1_" gradientUnits="userSpaceOnUse" x1="84.3619" y1="81.3115" x2="84.3619" y2="4.7274">
		<stop  offset="0" style="stop-color:#8B9AD1"/>
		<stop  offset="1" style="stop-color:#CEE0FF"/>
	</linearGradient>
	<path class="st0" d="M160.6,72.3c-0.1,0.2-0.3,0.3-0.5,0.5C146,84.3,23.6,83.8,6.6,73.5c-0.9-0.5-1.5-1.1-1.8-1.7
		c-6-12.6-2.8-50.4,6.8-58.6C21.9,4.4,145,0.4,157.7,11.6C167.1,19.7,171.5,60.8,160.6,72.3z"/>
	<linearGradient id="SVGID_2_" gradientUnits="userSpaceOnUse" x1="84.3622" y1="78.8267" x2="84.3622" y2="2.2402">
		<stop  offset="0" style="stop-color:#CADCFF"/>
		<stop  offset="1" style="stop-color:#FFFFFF"/>
	</linearGradient>
	<path class="st1" d="M4.8,69.3c5.8,12.1,143.8,13.1,155.8,0.5c10.9-11.5,6.5-52.5-2.9-60.7C145-2.1,21.9,1.9,11.6,10.7
		C2,18.8-1.3,56.7,4.8,69.3z"/>
	<path class="st2" d="M10.4,65.2c0,0,18.6,10,76,10c57.4,0,66.6-10,66.6-10H10.4z"/>
	<path class="st3" d="M160.1,65.1v7.6C146,84.3,23.6,83.8,6.6,73.5l0.4-2.3l3.5-6.1l147.1-6.8L160.1,65.1z"/>
	<radialGradient id="SVGID_3_" cx="85.3723" cy="68.9168" r="59.024" gradientUnits="userSpaceOnUse">
		<stop  offset="0" style="stop-color:#FFBD00"/>
		<stop  offset="1" style="stop-color:#FF772C"/>
	</radialGradient>
	<path class="st4" d="M9.1,63.8c5.3,11,133.5,14.1,144.4,2.7c9.9-10.4,5.9-47.7-2.6-55.1c-11.6-10.1-125.4-3-134.8,5
		C7.3,23.7,3.6,52.4,9.1,63.8z"/>
	<linearGradient id="SVGID_4_" gradientUnits="userSpaceOnUse" x1="82.9015" y1="70.1382" x2="82.9015" y2="6.9337">
		<stop  offset="0" style="stop-color:#FFF300"/>
		<stop  offset="1" style="stop-color:#FF9700"/>
	</linearGradient>
	<path class="st5" d="M9.5,61.8c5.3,10.6,132.7,11.4,143.5,0.3c9.9-10,6-43.2-2.5-50.4C139.1,2,25.6,8.8,16.3,16.5
		C7.6,23.7,4,50.8,9.5,61.8z"/>
	<linearGradient id="SVGID_5_" gradientUnits="userSpaceOnUse" x1="82.9015" y1="68.9522" x2="82.9015" y2="7.617">
		<stop  offset="0" style="stop-color:#FFCC00"/>
		<stop  offset="1" style="stop-color:#FF9700"/>
	</linearGradient>
	<path class="st6" d="M11.1,60.9c5.2,10.3,129.8,11.1,140.4,0.3c9.7-9.7,5.9-42-2.4-48.9C137.9,2.8,26.9,9.5,17.8,16.9
		C9.3,23.9,5.7,50.2,11.1,60.9z"/>
	<g id="name-text">
		<path class="st7" d="M64.2,47.1c0,1.1-0.1,2-0.3,2.9c-0.2,0.8-0.5,1.5-0.9,2.1c-0.4,0.6-0.8,1.1-1.2,1.5c-0.5,0.4-0.9,0.7-1.4,0.9
			c-0.5,0.2-0.9,0.4-1.4,0.5c-0.4,0.1-0.8,0.1-1.1,0.1c-0.2,0-0.4,0-0.7,0c-0.3,0-0.6-0.1-1-0.1c-0.4-0.1-0.8-0.2-1.2-0.3
			c-0.4-0.1-0.9-0.3-1.4-0.5l0.2-5.2c0.8,0.7,1.5,1.2,2.2,1.4c0.6,0.2,1.2,0.4,1.6,0.4c0.9,0,1.5-0.3,1.9-0.9
			c0.4-0.6,0.7-1.4,0.7-2.4c0-0.7-0.2-1.4-0.5-2.2c-0.3-0.8-0.9-1.7-1.7-2.7c-0.6-0.7-1.2-1.4-1.8-2.1c-0.6-0.7-1.2-1.5-1.7-2.3
			c-0.5-0.8-0.9-1.7-1.2-2.6c-0.3-0.9-0.5-2-0.5-3c0-1.4,0.2-2.6,0.6-3.6c0.4-1,0.9-1.8,1.5-2.5c0.6-0.7,1.4-1.2,2.2-1.5
			c0.8-0.3,1.7-0.5,2.6-0.5c0.8,0,1.6,0.1,2.4,0.3c0.8,0.2,1.6,0.5,2.5,1l-0.4,5.2c-0.4-0.5-0.7-0.8-1.1-1.1
			c-0.4-0.3-0.8-0.5-1.1-0.6c-0.4-0.1-0.7-0.2-1-0.3c-0.3,0-0.6-0.1-0.8-0.1c-0.4,0-0.8,0.1-1.1,0.3c-0.3,0.2-0.6,0.5-0.9,0.8
			c-0.2,0.3-0.4,0.7-0.6,1.2c-0.1,0.5-0.2,1-0.2,1.5c0,0.8,0.2,1.5,0.5,2.1c0.3,0.6,0.8,1.3,1.3,1.9c0.5,0.6,1.1,1.3,1.6,1.9
			c0.6,0.7,1.1,1.4,1.6,2.2c0.5,0.8,0.9,1.8,1.3,2.8C64.1,44.5,64.2,45.7,64.2,47.1z"/>
		<path class="st7" d="M76.9,29c-0.4,0-1,0-1.5-0.1c-0.6,0-1.2,0-1.8,0c-0.1,1.3-0.2,2.6-0.2,4c-0.1,1.4-0.1,2.8-0.2,4.2
			c0,1.4-0.1,2.8-0.1,4.3s0,2.8,0,4.2c0,1.6,0,3.1,0,4.6c0,1.5,0.1,2.9,0.1,4.3h-4.4c0.1-2.4,0.2-4.9,0.3-7.5c0.1-2.7,0.1-5.3,0.1-8
			c0-1.8,0-3.5-0.1-5.1c0-1.7-0.1-3.3-0.1-4.9c-0.7,0-1.3,0-1.9,0c-0.6,0-1.1,0-1.6,0.1l0-4.3c0.5,0,1.1,0.1,1.7,0.1
			c0.6,0,1.3,0,2,0.1c0.7,0,1.4,0,2.1,0c0.7,0,1.4,0,2.1,0c0.7,0,1.3,0,2,0c0.6,0,1.2,0,1.6,0L76.9,29z"/>
		<path class="st7" d="M87.1,54.6c-0.1-1-0.1-1.9-0.2-2.9c-0.1-1-0.1-1.9-0.2-2.9c-0.6,0-1.2-0.1-1.8-0.1c-0.6,0-1.1-0.1-1.7-0.1
			h-0.3c-0.1,1-0.1,2-0.2,2.9c-0.1,1-0.1,1.9-0.1,2.9l-5.2-0.1c0.9-4.9,1.6-9.9,2.3-14.8c0.7-4.9,1.3-9.9,1.8-14.9l6.2,0.1
			c0.5,4.9,1.2,9.8,1.9,14.7c0.7,4.9,1.6,9.8,2.6,14.7L87.1,54.6z M84.7,30c-0.3,2.5-0.5,5.1-0.8,7.6c-0.2,2.5-0.5,5.1-0.7,7.7
			c0.3,0,0.6,0,0.9,0c0.3,0,0.6,0,0.9,0h1.3c-0.2-2.6-0.5-5.1-0.8-7.7C85.3,35.1,85,32.5,84.7,30z"/>
		<path class="st7" d="M105.7,33.5c0,0.9-0.1,1.9-0.3,2.8c-0.2,0.9-0.5,1.8-0.8,2.7c-0.4,0.9-0.9,1.7-1.5,2.4
			c-0.6,0.8-1.4,1.4-2.2,2c0.8,2,1.6,3.9,2.6,5.7c0.9,1.8,2,3.6,3.1,5.3l-5.2,0.3l-3.5-10c0.1,1.7,0.1,3.4,0.2,5
			c0.1,1.7,0.2,3.3,0.3,4.9h-5.1c0.2-3.1,0.4-6.3,0.5-9.4c0.1-3.1,0.2-6.3,0.2-9.5c0-1.8,0-3.7,0-5.5c0-1.8-0.1-3.7-0.2-5.5
			c0.7-0.2,1.5-0.4,2.2-0.4c0.8-0.1,1.4-0.1,1.9-0.1c0.4,0,0.8,0,1.4,0.1c0.5,0.1,1.1,0.2,1.7,0.5c0.6,0.2,1.2,0.6,1.7,1
			c0.6,0.4,1.1,1,1.5,1.7c0.4,0.7,0.8,1.5,1.1,2.6C105.6,30.9,105.7,32.1,105.7,33.5z M97.8,41.3c0.5-0.1,0.9-0.3,1.3-0.6
			c0.4-0.3,0.7-0.6,1-0.9c0.3-0.3,0.5-0.7,0.7-1.1c0.2-0.4,0.3-0.8,0.5-1.2c0.3-0.9,0.4-1.9,0.5-2.9c0,0,0-0.2,0-0.5
			c0-0.3,0-0.7-0.1-1.2c-0.1-0.5-0.2-1-0.3-1.5c-0.1-0.6-0.3-1.1-0.6-1.6c-0.2-0.5-0.6-1-1-1.4c-0.4-0.4-0.9-0.7-1.4-0.9
			c-0.2,2.2-0.3,4.3-0.4,6.5c-0.1,2.1-0.1,4.3-0.1,6.5V41.3z"/>
		<path class="st7" d="M118.3,29c-0.4,0-1,0-1.5-0.1c-0.6,0-1.2,0-1.8,0c-0.1,1.3-0.2,2.6-0.2,4c-0.1,1.4-0.1,2.8-0.2,4.2
			c0,1.4-0.1,2.8-0.1,4.3c0,1.4,0,2.8,0,4.2c0,1.6,0,3.1,0,4.6c0,1.5,0.1,2.9,0.1,4.3h-4.4c0.1-2.4,0.2-4.9,0.3-7.5
			c0.1-2.7,0.1-5.3,0.1-8c0-1.8,0-3.5-0.1-5.1c0-1.7-0.1-3.3-0.1-4.9c-0.7,0-1.3,0-1.9,0c-0.6,0-1.1,0-1.6,0.1l0-4.3
			c0.5,0,1.1,0.1,1.7,0.1c0.6,0,1.3,0,2,0.1c0.7,0,1.4,0,2.1,0c0.7,0,1.4,0,2.1,0c0.7,0,1.3,0,2,0c0.6,0,1.2,0,1.6,0L118.3,29z"/>
	</g>
	<linearGradient id="SVGID_6_" gradientUnits="userSpaceOnUse" x1="17.427" y1="19.9371" x2="155.2097" y2="19.9371">
		<stop  offset="0" style="stop-color:#FF9840"/>
		<stop  offset="9.723417e-02" style="stop-color:#EF8E3C"/>
		<stop  offset="0.2877" style="stop-color:#C57531"/>
		<stop  offset="0.5527" style="stop-color:#814D20"/>
		<stop  offset="0.879" style="stop-color:#241609"/>
		<stop  offset="1" style="stop-color:#000000"/>
	</linearGradient>
	<path class="st8" d="M17.4,17c0,0,86.9-17.6,132-4.5c0,0,4,5,5.8,12.8c0,0-16.4,5.9-39.6,6.9c-23.2,1.1-47.4-12.1-67-14
		C29,16.2,17.4,17,17.4,17z"/>

		<linearGradient id="SVGID_7_" gradientUnits="userSpaceOnUse" x1="50.9363" y1="61.3664" x2="182.2887" y2="61.3664" gradientTransform="matrix(-1 0 0 1 199.9346 0)">
		<stop  offset="0" style="stop-color:#FF6140"/>
		<stop  offset="9.723417e-02" style="stop-color:#EF5B3C"/>
		<stop  offset="0.2877" style="stop-color:#C54B31"/>
		<stop  offset="0.5527" style="stop-color:#813120"/>
		<stop  offset="0.879" style="stop-color:#240E09"/>
		<stop  offset="1" style="stop-color:#000000"/>
	</linearGradient>
	<path class="st9" d="M149,61.4c0,0-58.1,10.2-131.4,1.2c0,0,47.6,4.1,68.7,0C122.3,55.6,139.6,53.6,149,61.4z"/>
	<path class="st2" d="M14.2,21.4c0,0,1.8-3.7,6.1-5.8c4.2-2,16.3-4,17-3.5c0.7,0.5-5.9,2.9-9.3,4.1S15.9,22.4,14.2,21.4z"/>
	<path class="st2" d="M13.8,22.4c-0.9,0.1-3,6.9-2.9,8c0.1,1.1,2.7-2.4,3.2-4.3C14.4,24.3,13.8,22.4,13.8,22.4z"/>
	<g>
		<g>

				<radialGradient id="SVGID_8_" cx="522.3307" cy="-485.0158" r="1.8201" gradientTransform="matrix(-5.960000e-02 -0.9982 0.9982 -5.960000e-02 545.1923 521.3449)" gradientUnits="userSpaceOnUse">
				<stop  offset="0" style="stop-color:#00B359"/>
				<stop  offset="0.1271" style="stop-color:#009148"/>
				<stop  offset="0.342" style="stop-color:#005E2F"/>
				<stop  offset="0.544" style="stop-color:#00351A"/>
				<stop  offset="0.7272" style="stop-color:#00180C"/>
				<stop  offset="0.8852" style="stop-color:#000603"/>
				<stop  offset="1" style="stop-color:#000000"/>
			</radialGradient>
			<path class="st10" d="M29.8,27c1-0.1,1.9,0.7,1.9,1.7c0.1,1-0.7,1.9-1.7,1.9c-1,0.1-1.9-0.7-1.9-1.7C28,28,28.8,27.1,29.8,27z"/>
			<path class="st11" d="M30,28.3c0.3,0,0.5,0.2,0.5,0.5c0,0.3-0.2,0.5-0.5,0.5c-0.3,0-0.5-0.2-0.5-0.5C29.5,28.6,29.8,28.4,30,28.3
				z"/>
		</g>
		<g>

				<radialGradient id="SVGID_9_" cx="529.983" cy="-482.0819" r="1.8201" gradientTransform="matrix(-5.960000e-02 -0.9982 0.9982 -5.960000e-02 545.1923 521.3449)" gradientUnits="userSpaceOnUse">
				<stop  offset="0" style="stop-color:#00B359"/>
				<stop  offset="0.1271" style="stop-color:#009148"/>
				<stop  offset="0.342" style="stop-color:#005E2F"/>
				<stop  offset="0.544" style="stop-color:#00351A"/>
				<stop  offset="0.7272" style="stop-color:#00180C"/>
				<stop  offset="0.8852" style="stop-color:#000603"/>
				<stop  offset="1" style="stop-color:#000000"/>
			</radialGradient>
			<path class="st12" d="M32.3,19.2c1-0.1,1.9,0.7,1.9,1.7c0.1,1-0.7,1.9-1.7,1.9c-1,0.1-1.9-0.7-1.9-1.7
				C30.5,20.2,31.3,19.3,32.3,19.2z"/>
			<path class="st11" d="M32.5,20.5c0.3,0,0.5,0.2,0.5,0.5c0,0.3-0.2,0.5-0.5,0.5c-0.3,0-0.5-0.2-0.5-0.5
				C32,20.8,32.2,20.6,32.5,20.5z"/>
		</g>
		<g>

				<radialGradient id="SVGID_10_" cx="507.6921" cy="-484.874" r="1.8201" gradientTransform="matrix(-5.960000e-02 -0.9982 0.9982 -5.960000e-02 545.1923 521.3449)" gradientUnits="userSpaceOnUse">
				<stop  offset="0" style="stop-color:#00B359"/>
				<stop  offset="0.1271" style="stop-color:#009148"/>
				<stop  offset="0.342" style="stop-color:#005E2F"/>
				<stop  offset="0.544" style="stop-color:#00351A"/>
				<stop  offset="0.7272" style="stop-color:#00180C"/>
				<stop  offset="0.8852" style="stop-color:#000603"/>
				<stop  offset="1" style="stop-color:#000000"/>
			</radialGradient>
			<path class="st13" d="M30.8,41.6c1-0.1,1.9,0.7,1.9,1.7c0.1,1-0.7,1.9-1.7,1.9c-1,0.1-1.9-0.7-1.9-1.7
				C29.1,42.6,29.8,41.7,30.8,41.6z"/>
			<path class="st11" d="M31,43c0.3,0,0.5,0.2,0.5,0.5c0,0.3-0.2,0.5-0.5,0.5c-0.3,0-0.5-0.2-0.5-0.5C30.6,43.2,30.8,43,31,43z"/>
		</g>
		<g>

				<radialGradient id="SVGID_11_" cx="531.2988" cy="-491.8509" r="5.0932" gradientTransform="matrix(-5.960000e-02 -0.9982 0.9982 -5.960000e-02 545.1923 521.3449)" gradientUnits="userSpaceOnUse">
				<stop  offset="0" style="stop-color:#00B359"/>
				<stop  offset="0.1271" style="stop-color:#009148"/>
				<stop  offset="0.342" style="stop-color:#005E2F"/>
				<stop  offset="0.544" style="stop-color:#00351A"/>
				<stop  offset="0.7272" style="stop-color:#00180C"/>
				<stop  offset="0.8852" style="stop-color:#000603"/>
				<stop  offset="1" style="stop-color:#000000"/>
			</radialGradient>
			<path class="st14" d="M22.3,15.2c2.8-0.2,5.2,2,5.4,4.8c0.2,2.8-2,5.2-4.8,5.4c-2.8,0.2-5.2-2-5.4-4.8
				C17.3,17.8,19.4,15.4,22.3,15.2z"/>
			<path class="st11" d="M22.9,18.9c0.8,0,1.4,0.5,1.5,1.3c0,0.8-0.5,1.4-1.3,1.5c-0.8,0-1.4-0.5-1.5-1.3
				C21.5,19.6,22.1,18.9,22.9,18.9z"/>
		</g>
		<g>

				<radialGradient id="SVGID_12_" cx="488.2478" cy="-389.7043" r="5.0931" gradientTransform="matrix(-5.960000e-02 -0.9982 0.9982 -5.960000e-02 545.1923 521.3449)" gradientUnits="userSpaceOnUse">
				<stop  offset="0" style="stop-color:#00B359"/>
				<stop  offset="0.1271" style="stop-color:#009148"/>
				<stop  offset="0.342" style="stop-color:#005E2F"/>
				<stop  offset="0.544" style="stop-color:#00351A"/>
				<stop  offset="0.7272" style="stop-color:#00180C"/>
				<stop  offset="0.8852" style="stop-color:#000603"/>
				<stop  offset="1" style="stop-color:#000000"/>
			</radialGradient>
			<path class="st15" d="M126.8,52.1c2.8-0.2,5.2,2,5.4,4.8c0.2,2.8-2,5.2-4.8,5.4c-2.8,0.2-5.2-2-5.4-4.8
				C121.8,54.7,124,52.3,126.8,52.1z"/>
			<path class="st11" d="M127.4,55.8c0.8,0,1.4,0.5,1.5,1.3c0,0.8-0.5,1.4-1.3,1.5c-0.8,0-1.4-0.5-1.5-1.3
				C126,56.5,126.6,55.8,127.4,55.8z"/>
		</g>
		<g>

				<radialGradient id="SVGID_13_" cx="491.7751" cy="-363.3234" r="2.4327" gradientTransform="matrix(-5.960000e-02 -0.9982 0.9982 -5.960000e-02 545.1923 521.3449)" gradientUnits="userSpaceOnUse">
				<stop  offset="0" style="stop-color:#00B359"/>
				<stop  offset="0.1271" style="stop-color:#009148"/>
				<stop  offset="0.342" style="stop-color:#005E2F"/>
				<stop  offset="0.544" style="stop-color:#00351A"/>
				<stop  offset="0.7272" style="stop-color:#00180C"/>
				<stop  offset="0.8852" style="stop-color:#000603"/>
				<stop  offset="1" style="stop-color:#000000"/>
			</radialGradient>
			<path class="st16" d="M153.1,49.7c1.3-0.1,2.5,0.9,2.6,2.3c0.1,1.3-0.9,2.5-2.3,2.6s-2.5-0.9-2.6-2.3
				C150.7,50.9,151.7,49.8,153.1,49.7z"/>
			<path class="st11" d="M153.4,51.4c0.4,0,0.7,0.3,0.7,0.6c0,0.4-0.3,0.7-0.6,0.7c-0.4,0-0.7-0.3-0.7-0.6
				C152.7,51.8,153,51.4,153.4,51.4z"/>
		</g>
		<g>

				<radialGradient id="SVGID_14_" cx="494.2826" cy="-479.6649" r="2.4326" gradientTransform="matrix(-5.960000e-02 -0.9982 0.9982 -5.960000e-02 545.1923 521.3449)" gradientUnits="userSpaceOnUse">
				<stop  offset="0" style="stop-color:#00B359"/>
				<stop  offset="0.1271" style="stop-color:#009148"/>
				<stop  offset="0.342" style="stop-color:#005E2F"/>
				<stop  offset="0.544" style="stop-color:#00351A"/>
				<stop  offset="0.7272" style="stop-color:#00180C"/>
				<stop  offset="0.8852" style="stop-color:#000603"/>
				<stop  offset="1" style="stop-color:#000000"/>
			</radialGradient>
			<path class="st17" d="M36.8,54.1c1.3-0.1,2.5,0.9,2.6,2.3c0.1,1.3-0.9,2.5-2.3,2.6c-1.3,0.1-2.5-0.9-2.6-2.3
				C34.4,55.3,35.4,54.2,36.8,54.1z"/>
			<path class="st11" d="M37.1,55.9c0.4,0,0.7,0.3,0.7,0.6c0,0.4-0.3,0.7-0.6,0.7c-0.4,0-0.7-0.3-0.7-0.6S36.7,55.9,37.1,55.9z"/>
		</g>
		<g>

				<radialGradient id="SVGID_15_" cx="500.4069" cy="-409.412" r="1.2163" gradientTransform="matrix(-5.960000e-02 -0.9982 0.9982 -5.960000e-02 545.1923 521.3449)" gradientUnits="userSpaceOnUse">
				<stop  offset="0" style="stop-color:#00B359"/>
				<stop  offset="0.1271" style="stop-color:#009148"/>
				<stop  offset="0.342" style="stop-color:#005E2F"/>
				<stop  offset="0.544" style="stop-color:#00351A"/>
				<stop  offset="0.7272" style="stop-color:#00180C"/>
				<stop  offset="0.8852" style="stop-color:#000603"/>
				<stop  offset="1" style="stop-color:#000000"/>
			</radialGradient>
			<path class="st18" d="M106.6,45c0.7,0,1.2,0.5,1.3,1.1s-0.5,1.2-1.1,1.3c-0.7,0-1.2-0.5-1.3-1.1C105.4,45.6,105.9,45.1,106.6,45z
				"/>
			<path class="st11" d="M106.8,45.9c0.2,0,0.3,0.1,0.4,0.3c0,0.2-0.1,0.3-0.3,0.4c-0.2,0-0.3-0.1-0.4-0.3
				C106.4,46.1,106.6,45.9,106.8,45.9z"/>
		</g>
		<g>

				<radialGradient id="SVGID_16_" cx="490.3751" cy="-501.6079" r="1.2163" gradientTransform="matrix(-5.960000e-02 -0.9982 0.9982 -5.960000e-02 545.1923 521.3449)" gradientUnits="userSpaceOnUse">
				<stop  offset="0" style="stop-color:#00B359"/>
				<stop  offset="0.1271" style="stop-color:#009148"/>
				<stop  offset="0.342" style="stop-color:#005E2F"/>
				<stop  offset="0.544" style="stop-color:#00351A"/>
				<stop  offset="0.7272" style="stop-color:#00180C"/>
				<stop  offset="0.8852" style="stop-color:#000603"/>
				<stop  offset="1" style="stop-color:#000000"/>
			</radialGradient>
			<path class="st19" d="M15.2,60.5c0.7,0,1.2,0.5,1.3,1.1c0,0.7-0.5,1.2-1.1,1.3c-0.7,0-1.2-0.5-1.3-1.1
				C14,61.2,14.5,60.6,15.2,60.5z"/>
			<path class="st11" d="M15.3,61.4c0.2,0,0.3,0.1,0.4,0.3c0,0.2-0.1,0.3-0.3,0.4c-0.2,0-0.3-0.1-0.4-0.3
				C15,61.6,15.1,61.4,15.3,61.4z"/>
		</g>
		<g>

				<radialGradient id="SVGID_17_" cx="509.1805" cy="-466.2476" r="1.2163" gradientTransform="matrix(-5.960000e-02 -0.9982 0.9982 -5.960000e-02 545.1923 521.3449)" gradientUnits="userSpaceOnUse">
				<stop  offset="0" style="stop-color:#00B359"/>
				<stop  offset="0.1271" style="stop-color:#009148"/>
				<stop  offset="0.342" style="stop-color:#005E2F"/>
				<stop  offset="0.544" style="stop-color:#00351A"/>
				<stop  offset="0.7272" style="stop-color:#00180C"/>
				<stop  offset="0.8852" style="stop-color:#000603"/>
				<stop  offset="1" style="stop-color:#000000"/>
			</radialGradient>
			<path class="st20" d="M49.4,39.7c0.7,0,1.2,0.5,1.3,1.1c0,0.7-0.5,1.2-1.1,1.3c-0.7,0-1.2-0.5-1.3-1.1
				C48.2,40.3,48.7,39.7,49.4,39.7z"/>
			<path class="st11" d="M49.5,40.5c0.2,0,0.3,0.1,0.4,0.3c0,0.2-0.1,0.3-0.3,0.4c-0.2,0-0.3-0.1-0.4-0.3
				C49.2,40.7,49.3,40.5,49.5,40.5z"/>
		</g>
		<g>

				<radialGradient id="SVGID_18_" cx="491.4412" cy="-484.2283" r="0.9068" gradientTransform="matrix(-5.960000e-02 -0.9982 0.9982 -5.960000e-02 545.1923 521.3449)" gradientUnits="userSpaceOnUse">
				<stop  offset="0" style="stop-color:#00B359"/>
				<stop  offset="0.1271" style="stop-color:#009148"/>
				<stop  offset="0.342" style="stop-color:#005E2F"/>
				<stop  offset="0.544" style="stop-color:#00351A"/>
				<stop  offset="0.7272" style="stop-color:#00180C"/>
				<stop  offset="0.8852" style="stop-color:#000603"/>
				<stop  offset="1" style="stop-color:#000000"/>
			</radialGradient>
			<path class="st21" d="M32.5,58.7c0.5,0,0.9,0.4,1,0.9c0,0.5-0.4,0.9-0.9,1c-0.5,0-0.9-0.4-1-0.9C31.6,59.2,32,58.8,32.5,58.7z"/>
			<path class="st11" d="M32.6,59.4c0.1,0,0.3,0.1,0.3,0.2c0,0.1-0.1,0.3-0.2,0.3c-0.1,0-0.3-0.1-0.3-0.2
				C32.4,59.5,32.5,59.4,32.6,59.4z"/>
		</g>
		<g>

				<radialGradient id="SVGID_19_" cx="484.2641" cy="-421.4696" r="1.8999" gradientTransform="matrix(-5.960000e-02 -0.9982 0.9982 -5.960000e-02 545.1923 521.3449)" gradientUnits="userSpaceOnUse">
				<stop  offset="0" style="stop-color:#00B359"/>
				<stop  offset="0.1271" style="stop-color:#009148"/>
				<stop  offset="0.342" style="stop-color:#005E2F"/>
				<stop  offset="0.544" style="stop-color:#00351A"/>
				<stop  offset="0.7272" style="stop-color:#00180C"/>
				<stop  offset="0.8852" style="stop-color:#000603"/>
				<stop  offset="1" style="stop-color:#000000"/>
			</radialGradient>
			<path class="st22" d="M95.5,61.2c1-0.1,1.9,0.7,2,1.8c0.1,1-0.7,1.9-1.8,2c-1,0.1-1.9-0.7-2-1.8C93.7,62.1,94.5,61.2,95.5,61.2z"
				/>
			<path class="st11" d="M95.7,62.5c0.3,0,0.5,0.2,0.6,0.5c0,0.3-0.2,0.5-0.5,0.6c-0.3,0-0.5-0.2-0.6-0.5
				C95.2,62.8,95.4,62.6,95.7,62.5z"/>
		</g>
		<g>

				<radialGradient id="SVGID_20_" cx="485.2853" cy="-461.5219" r="1.8999" gradientTransform="matrix(-5.960000e-02 -0.9982 0.9982 -5.960000e-02 545.1923 521.3449)" gradientUnits="userSpaceOnUse">
				<stop  offset="0" style="stop-color:#00B359"/>
				<stop  offset="0.1271" style="stop-color:#009148"/>
				<stop  offset="0.342" style="stop-color:#005E2F"/>
				<stop  offset="0.544" style="stop-color:#00351A"/>
				<stop  offset="0.7272" style="stop-color:#00180C"/>
				<stop  offset="0.8852" style="stop-color:#000603"/>
				<stop  offset="1" style="stop-color:#000000"/>
			</radialGradient>
			<path class="st23" d="M55.5,62.5c1-0.1,1.9,0.7,2,1.8c0.1,1-0.7,1.9-1.8,2c-1,0.1-1.9-0.7-2-1.8C53.6,63.5,54.4,62.6,55.5,62.5z"
				/>
			<path class="st11" d="M55.7,63.9c0.3,0,0.5,0.2,0.6,0.5c0,0.3-0.2,0.5-0.5,0.6c-0.3,0-0.5-0.2-0.6-0.5
				C55.2,64.2,55.4,63.9,55.7,63.9z"/>
		</g>
	</g>
	<path class="st2" d="M138.2,60.7c-0.5-0.9,4-5.1,5.1-5c1.1,0,0.1,2.7-0.6,3.4C142.1,59.6,138.5,61.1,138.2,60.7z"/>
</g>
</svg>
